PathFileType	3	(X/Y/Z)	squats_2__fused_aligned.trc
DataRate	CameraRate	NumFrames	NumMarkers	Units	OrigDataRate	OrigDataStartFrame	OrigNumFrames
100.0	100.0	7	19	mm	100.0	1286	1520
Frame#	Time	pelvis			neck			head			hip_left			hip_right			knee_left			knee_right			ankle_left			ankle_right			heel_left			heel_right			toe_left			toe_right			shoulder_left			shoulder_right			elbow_left			elbow_right			wrist_left			wrist_right			
		X1	Y1	Z1	X2	Y2	Z2	X3	Y3	Z3	X4	Y4	Z4	X5	Y5	Z5	X6	Y6	Z6	X7	Y7	Z7	X8	Y8	Z8	X9	Y9	Z9	X10	Y10	Z10	X11	Y11	Z11	X12	Y12	Z12	X13	Y13	Z13	X14	Y14	Z14	X15	Y15	Z15	X16	Y16	Z16	X17	Y17	Z17	X18	Y18	Z18	X19	Y19	Z19	
1286	12.85000	22.197198	655.604165	56.828637	18.124807	1101.965273	-266.710914	11.100102	1206.797397	-405.124086	-55.974491	655.986656	57.071956	100.368797	655.221675	56.585399	-159.758227	436.930410	-281.511778	191.592672	408.597496	-264.239434	-128.516526	162.451732	4.341887	164.232726	106.183537	-12.150622	-120.931695	132.024404	54.172671	156.033619	75.633360	37.682885	-165.224765	76.595761	-147.240903	190.323553	5.166697	-164.016196	-161.901788	1055.655163	-246.573252	196.966170	1058.469478	-241.045685	-132.753774	766.291881	-258.884118	211.673234	766.530827	-254.075570	79.233651	870.528382	-323.103261	51.254145	863.245349	-385.154220
1287	12.86000	22.870551	649.924191	56.313188	18.666074	1095.271978	-267.496416	11.291408	1199.669488	-406.026956	-55.323313	650.265146	56.475293	101.064324	649.583237	56.151164	-158.802209	435.420279	-284.235297	193.340022	407.286491	-266.684747	-126.686827	162.701645	2.928672	165.176622	106.823703	-12.861742	-119.059351	132.504565	52.890987	156.922780	76.524134	37.114389	-163.259113	76.490095	-148.357859	191.082504	5.369871	-164.255716	-161.295940	1048.888511	-247.320173	197.442938	1052.177936	-241.674494	-131.744186	759.803735	-259.580764	212.732225	760.426606	-254.052366	80.004405	863.910825	-324.357230	53.075340	857.117277	-385.878117
1288	12.87000	23.543903	644.244217	55.797739	19.207340	1088.578682	-268.281917	11.482715	1192.541578	-406.929826	-54.672135	644.543636	55.878631	101.759851	643.944799	55.716930	-157.846192	433.910149	-286.958816	195.087372	405.975485	-269.130061	-124.857128	162.951557	1.515458	166.120519	107.463868	-13.572862	-117.187006	132.984726	51.609303	157.811941	77.414909	36.545892	-161.293461	76.384428	-149.474815	191.841454	5.573046	-164.495235	-160.690093	1042.121859	-248.067095	197.919706	1045.886394	-242.303303	-130.734598	753.315589	-260.277410	213.791215	754.322386	-254.029161	80.775158	857.293269	-325.611199	54.896536	850.989204	-386.602013
1289	12.88000	24.217256	638.564244	55.282290	19.748606	1081.885386	-269.067418	11.674021	1185.413668	-407.832696	-54.020957	638.822126	55.281968	102.455378	638.306362	55.282695	-156.890174	432.400018	-289.682335	196.834722	404.664479	-271.575374	-123.027429	163.201469	0.102243	167.064415	108.104034	-14.283983	-115.314662	133.464887	50.327618	158.701102	78.305683	35.977396	-159.327809	76.278761	-150.591771	192.600405	5.776220	-164.734755	-160.084246	1035.355207	-248.814017	198.396474	1039.594851	-242.932112	-129.725010	746.827443	-260.974055	214.850205	748.218165	-254.005957	81.545912	850.675713	-326.865168	56.717732	844.861132	-387.325909
1290	12.89000	24.890608	632.884270	54.766841	20.289873	1075.192091	-269.852919	11.865327	1178.285758	-408.735566	-53.369779	633.100616	54.685305	103.150905	632.667924	54.848460	-155.934156	430.889888	-292.405854	198.582072	403.353474	-274.020687	-121.197729	163.451382	-1.310971	168.008312	108.744199	-14.995103	-113.442318	133.945048	49.045934	159.590264	79.196458	35.408900	-157.362157	76.173095	-151.708727	193.359355	5.979394	-164.974275	-159.478399	1028.588555	-249.560939	198.873243	1033.303309	-243.560921	-128.715422	740.339297	-261.670701	215.909195	742.113944	-253.982752	82.316665	844.058156	-328.119137	58.538928	838.733060	-388.049806
1291	12.90000	25.563960	627.204296	54.251393	20.831139	1068.498795	-270.638421	12.056633	1171.157849	-409.638436	-52.718601	627.379106	54.088643	103.846432	627.029486	54.414225	-154.978139	429.379757	-295.129374	200.329422	402.042468	-276.466001	-119.368030	163.701294	-2.724186	168.952208	109.384365	-15.706223	-111.569973	134.425209	47.764250	160.479425	80.087232	34.840403	-155.396505	76.067428	-152.825683	194.118306	6.182569	-165.213795	-158.872552	1021.821903	-250.307861	199.350011	1027.011767	-244.189730	-127.705834	733.851150	-262.367347	216.968185	736.009723	-253.959548	83.087419	837.440600	-329.373106	60.360124	832.604987	-388.773702
1292	12.91000	26.237313	621.524322	53.735944	21.372405	1061.805500	-271.423922	12.247939	1164.029939	-410.541306	-52.067423	621.657596	53.491980	104.541959	621.391049	53.979990	-154.022121	427.869626	-297.852893	202.076772	400.731462	-278.911314	-117.538331	163.951207	-4.137401	169.896105	110.024530	-16.417343	-109.697629	134.905370	46.482565	161.368586	80.978007	34.271907	-153.430853	75.961762	-153.942639	194.877256	6.385743	-165.453314	-158.266704	1015.055251	-251.054783	199.826779	1020.720225	-244.818539	-126.696246	727.363004	-263.063992	218.027175	729.905502	-253.936344	83.858172	830.823043	-330.627075	62.181320	826.476915	-389.497598
